<?xml version="1.0" encoding="UTF-8" standalone="no"?>
<!-- Generator: Adobe Illustrator 19.0.0, SVG Export Plug-In . SVG Version: 6.00 Build 0)  -->

<svg
   xmlns:dc="http://purl.org/dc/elements/1.1/"
   xmlns:cc="http://creativecommons.org/ns#"
   xmlns:rdf="http://www.w3.org/1999/02/22-rdf-syntax-ns#"
   xmlns:svg="http://www.w3.org/2000/svg"
   xmlns="http://www.w3.org/2000/svg"
   xmlns:sodipodi="http://sodipodi.sourceforge.net/DTD/sodipodi-0.dtd"
   xmlns:inkscape="http://www.inkscape.org/namespaces/inkscape"
   version="1.1"
   id="Layer_1"
   x="0px"
   y="0px"
   viewBox="0 0 512 512"
   style="enable-background:new 0 0 512 512;"
   xml:space="preserve"
   sodipodi:docname="qr-code-scan-svgrepo-com.svg"
   inkscape:version="0.92.4 (unknown)"><metadata
   id="metadata223"><rdf:RDF><cc:Work
       rdf:about=""><dc:format>image/svg+xml</dc:format><dc:type
         rdf:resource="http://purl.org/dc/dcmitype/StillImage" /></cc:Work></rdf:RDF></metadata><defs
   id="defs221" /><sodipodi:namedview
   pagecolor="#ffffff"
   bordercolor="#666666"
   borderopacity="1"
   objecttolerance="10"
   gridtolerance="10"
   guidetolerance="10"
   inkscape:pageopacity="0"
   inkscape:pageshadow="2"
   inkscape:window-width="1440"
   inkscape:window-height="836"
   id="namedview219"
   showgrid="false"
   inkscape:zoom="0.4609375"
   inkscape:cx="-247.32203"
   inkscape:cy="247.32203"
   inkscape:window-x="0"
   inkscape:window-y="27"
   inkscape:window-maximized="1"
   inkscape:current-layer="Layer_1" />
<g
   id="g6"
   style="fill:#ffffff;opacity:0.804">
	<g
   id="g4"
   style="fill:#ffffff">
		<path
   d="M217.043,0H16.696C7.475,0,0,7.475,0,16.696v200.348c0,9.22,7.475,16.696,16.696,16.696h200.348    c9.22,0,16.696-7.475,16.696-16.696V16.696C233.739,7.475,226.264,0,217.043,0z M200.348,200.348H33.391V33.391h166.957V200.348z"
   id="path2"
   style="fill:#ffffff" />
	</g>
</g>
<g
   id="g12"
   style="fill:#ffffff;opacity:0.804">
	<g
   id="g10"
   style="fill:#ffffff">
		<path
   d="M150.261,66.783H83.478c-9.22,0-16.696,7.475-16.696,16.696v66.783c0,9.22,7.475,16.696,16.696,16.696h66.783    c9.22,0,16.696-7.475,16.696-16.696V83.478C166.957,74.258,159.481,66.783,150.261,66.783z M133.565,133.565h-33.391v-33.391    h33.391V133.565z"
   id="path8"
   style="fill:#ffffff" />
	</g>
</g>
<g
   id="g18"
   style="fill:#ffffff;opacity:0.804">
	<g
   id="g16"
   style="fill:#ffffff">
		<path
   d="M495.304,0H294.957c-9.22,0-16.696,7.475-16.696,16.696v200.348c0,9.22,7.475,16.696,16.696,16.696h200.348    c9.22,0,16.696-7.475,16.696-16.696V16.696C512,7.475,504.525,0,495.304,0z M478.609,200.348H311.652V33.391h166.957V200.348z"
   id="path14"
   style="fill:#ffffff" />
	</g>
</g>
<g
   id="g24"
   style="fill:#ffffff;opacity:0.804">
	<g
   id="g22"
   style="fill:#ffffff">
		<path
   d="M428.522,66.783h-66.783c-9.22,0-16.696,7.475-16.696,16.696v66.783c0,9.22,7.475,16.696,16.696,16.696h66.783    c9.22,0,16.696-7.475,16.696-16.696V83.478C445.217,74.258,437.742,66.783,428.522,66.783z M411.826,133.565h-33.391v-33.391    h33.391V133.565z"
   id="path20"
   style="fill:#ffffff" />
	</g>
</g>
<g
   id="g30"
   style="fill:#ffffff;opacity:0.804">
	<g
   id="g28"
   style="fill:#ffffff">
		<path
   d="M217.043,278.261H16.696C7.475,278.261,0,285.736,0,294.957v200.348C0,504.525,7.475,512,16.696,512h200.348    c9.22,0,16.696-7.475,16.696-16.696V294.957C233.739,285.736,226.264,278.261,217.043,278.261z M200.348,478.609H33.391V311.652    h166.957V478.609z"
   id="path26"
   style="fill:#ffffff" />
	</g>
</g>
<g
   id="g36"
   style="fill:#ffffff;opacity:0.804">
	<g
   id="g34"
   style="fill:#ffffff">
		<path
   d="M150.261,345.043H83.478c-9.22,0-16.696,7.475-16.696,16.696v66.783c0,9.22,7.475,16.696,16.696,16.696h66.783    c9.22,0,16.696-7.475,16.696-16.696v-66.783C166.957,352.519,159.481,345.043,150.261,345.043z M133.565,411.826h-33.391v-33.391    h33.391V411.826z"
   id="path32"
   style="fill:#ffffff" />
	</g>
</g>
<g
   id="g42"
   style="fill:#ffffff;opacity:0.804">
	<g
   id="g40"
   style="fill:#ffffff">
		<rect
   x="278.261"
   y="278.261"
   width="33.391"
   height="33.391"
   id="rect38"
   style="fill:#ffffff" />
	</g>
</g>
<g
   id="g48"
   style="fill:#ffffff;opacity:0.804">
	<g
   id="g46"
   style="fill:#ffffff">
		<rect
   x="278.261"
   y="345.043"
   width="33.391"
   height="33.391"
   id="rect44"
   style="fill:#ffffff" />
	</g>
</g>
<g
   id="g54"
   style="fill:#ffffff;opacity:0.804">
	<g
   id="g52"
   style="fill:#ffffff">
		<rect
   x="278.261"
   y="411.826"
   width="33.391"
   height="33.391"
   id="rect50"
   style="fill:#ffffff" />
	</g>
</g>
<g
   id="g60"
   style="fill:#ffffff;opacity:0.804">
	<g
   id="g58"
   style="fill:#ffffff">
		<rect
   x="311.652"
   y="311.652"
   width="33.391"
   height="33.391"
   id="rect56"
   style="fill:#ffffff" />
	</g>
</g>
<g
   id="g66"
   style="fill:#ffffff;opacity:0.804">
	<g
   id="g64"
   style="fill:#ffffff">
		<rect
   x="311.652"
   y="378.435"
   width="33.391"
   height="33.391"
   id="rect62"
   style="fill:#ffffff" />
	</g>
</g>
<g
   id="g72"
   style="fill:#ffffff;opacity:0.804">
	<g
   id="g70"
   style="fill:#ffffff">
		<rect
   x="311.652"
   y="445.217"
   width="33.391"
   height="33.391"
   id="rect68"
   style="fill:#ffffff" />
	</g>
</g>
<g
   id="g78"
   style="fill:#ffffff;opacity:0.804">
	<g
   id="g76"
   style="fill:#ffffff">
		<rect
   x="345.043"
   y="278.261"
   width="33.391"
   height="33.391"
   id="rect74"
   style="fill:#ffffff" />
	</g>
</g>
<g
   id="g84"
   style="fill:#ffffff;opacity:0.804">
	<g
   id="g82"
   style="fill:#ffffff">
		<rect
   x="345.043"
   y="345.043"
   width="33.391"
   height="33.391"
   id="rect80"
   style="fill:#ffffff" />
	</g>
</g>
<g
   id="g90"
   style="fill:#ffffff;opacity:0.804">
	<g
   id="g88"
   style="fill:#ffffff">
		<rect
   x="345.043"
   y="411.826"
   width="33.391"
   height="33.391"
   id="rect86"
   style="fill:#ffffff" />
	</g>
</g>
<g
   id="g96"
   style="fill:#ffffff;opacity:0.804">
	<g
   id="g94"
   style="fill:#ffffff">
		<rect
   x="378.435"
   y="311.652"
   width="33.391"
   height="33.391"
   id="rect92"
   style="fill:#ffffff" />
	</g>
</g>
<g
   id="g102"
   style="fill:#ffffff;opacity:0.804">
	<g
   id="g100"
   style="fill:#ffffff">
		<rect
   x="378.435"
   y="378.435"
   width="33.391"
   height="33.391"
   id="rect98"
   style="fill:#ffffff" />
	</g>
</g>
<g
   id="g108"
   style="fill:#ffffff;opacity:0.804">
	<g
   id="g106"
   style="fill:#ffffff">
		<rect
   x="378.435"
   y="445.217"
   width="33.391"
   height="33.391"
   id="rect104"
   style="fill:#ffffff" />
	</g>
</g>
<g
   id="g114"
   style="fill:#ffffff;opacity:0.804">
	<g
   id="g112"
   style="fill:#ffffff">
		<rect
   x="411.826"
   y="278.261"
   width="33.391"
   height="33.391"
   id="rect110"
   style="fill:#ffffff" />
	</g>
</g>
<g
   id="g120"
   style="fill:#ffffff;opacity:0.804">
	<g
   id="g118"
   style="fill:#ffffff">
		<rect
   x="411.826"
   y="345.043"
   width="33.391"
   height="33.391"
   id="rect116"
   style="fill:#ffffff" />
	</g>
</g>
<g
   id="g126"
   style="fill:#ffffff;opacity:0.804">
	<g
   id="g124"
   style="fill:#ffffff">
		<rect
   x="411.826"
   y="411.826"
   width="33.391"
   height="33.391"
   id="rect122"
   style="fill:#ffffff" />
	</g>
</g>
<g
   id="g132"
   style="fill:#ffffff;opacity:0.804">
	<g
   id="g130"
   style="fill:#ffffff">
		<rect
   x="445.217"
   y="311.652"
   width="33.391"
   height="33.391"
   id="rect128"
   style="fill:#ffffff" />
	</g>
</g>
<g
   id="g138"
   style="fill:#ffffff;opacity:0.804">
	<g
   id="g136"
   style="fill:#ffffff">
		<rect
   x="445.217"
   y="378.435"
   width="33.391"
   height="33.391"
   id="rect134"
   style="fill:#ffffff" />
	</g>
</g>
<g
   id="g144"
   style="fill:#ffffff;opacity:0.804">
	<g
   id="g142"
   style="fill:#ffffff">
		<rect
   x="445.217"
   y="445.217"
   width="33.391"
   height="33.391"
   id="rect140"
   style="fill:#ffffff" />
	</g>
</g>
<g
   id="g150"
   style="fill:#ffffff;opacity:0.804">
	<g
   id="g148"
   style="fill:#ffffff">
		<rect
   x="278.261"
   y="478.609"
   width="33.391"
   height="33.391"
   id="rect146"
   style="fill:#ffffff" />
	</g>
</g>
<g
   id="g156"
   style="fill:#ffffff;opacity:0.804">
	<g
   id="g154"
   style="fill:#ffffff">
		<rect
   x="345.043"
   y="478.609"
   width="33.391"
   height="33.391"
   id="rect152"
   style="fill:#ffffff" />
	</g>
</g>
<g
   id="g162"
   style="fill:#ffffff;opacity:0.804">
	<g
   id="g160"
   style="fill:#ffffff">
		<rect
   x="411.826"
   y="478.609"
   width="33.391"
   height="33.391"
   id="rect158"
   style="fill:#ffffff" />
	</g>
</g>
<g
   id="g168"
   style="fill:#ffffff;opacity:0.804">
	<g
   id="g166"
   style="fill:#ffffff">
		<rect
   x="478.609"
   y="278.261"
   width="33.391"
   height="33.391"
   id="rect164"
   style="fill:#ffffff" />
	</g>
</g>
<g
   id="g174"
   style="fill:#ffffff;opacity:0.804">
	<g
   id="g172"
   style="fill:#ffffff">
		<rect
   x="478.609"
   y="345.043"
   width="33.391"
   height="33.391"
   id="rect170"
   style="fill:#ffffff" />
	</g>
</g>
<g
   id="g180"
   style="fill:#ffffff;opacity:0.804">
	<g
   id="g178"
   style="fill:#ffffff">
		<rect
   x="478.609"
   y="411.826"
   width="33.391"
   height="33.391"
   id="rect176"
   style="fill:#ffffff" />
	</g>
</g>
<g
   id="g186"
   style="fill:#ffffff;opacity:0.804">
	<g
   id="g184"
   style="fill:#ffffff">
		<rect
   x="478.609"
   y="478.609"
   width="33.391"
   height="33.391"
   id="rect182"
   style="fill:#ffffff" />
	</g>
</g>
<g
   id="g188">
</g>
<g
   id="g190">
</g>
<g
   id="g192">
</g>
<g
   id="g194">
</g>
<g
   id="g196">
</g>
<g
   id="g198">
</g>
<g
   id="g200">
</g>
<g
   id="g202">
</g>
<g
   id="g204">
</g>
<g
   id="g206">
</g>
<g
   id="g208">
</g>
<g
   id="g210">
</g>
<g
   id="g212">
</g>
<g
   id="g214">
</g>
<g
   id="g216">
</g>
</svg>