<?xml version="1.0" encoding="UTF-8" standalone="no"?>
<svg
   xmlns:dc="http://purl.org/dc/elements/1.1/"
   xmlns:cc="http://creativecommons.org/ns#"
   xmlns:rdf="http://www.w3.org/1999/02/22-rdf-syntax-ns#"
   xmlns:svg="http://www.w3.org/2000/svg"
   xmlns="http://www.w3.org/2000/svg"
   xmlns:xlink="http://www.w3.org/1999/xlink"
   id="logoconrod"
   version="1.1"
   viewBox="0 0 285.75001 285.75001"
   height="1080"
   width="1080">
  <defs
     id="defs4898">
    <linearGradient
       id="linearGradient4754">
      <stop id="stop4750"
         offset="0"
         style="stop-color:#104b6f;stop-opacity:1" />
      <stop
         id="stop4752"
         offset="1"
         style="stop-color:#05181f;stop-opacity:1" />
    </linearGradient>
    <filter
       style="color-interpolation-filters:sRGB"
       id="filter5079"
       x="-0.175494"
       width="1.350988"
       y="-0.006212397"
       height="1.0124248">
      <feGaussianBlur
         stdDeviation="2.1032715"
         id="feGaussianBlur5081" />
    </filter>
    <filter
       style="color-interpolation-filters:sRGB"
       id="filter5120"
       x="-0.2420883"
       width="1.4841766"
       y="-0.0030376429"
       height="1.0060753">
      <feGaussianBlur
         stdDeviation="0.9147266"
         id="feGaussianBlur5122" />
    </filter>
    <linearGradient
       id="linearGradient4294">
      <stop
         offset="0"
         style="stop-color:#fee471"
         id="stop4296-7" />
      <stop
         offset=".22621"
         style="stop-color:#d1aa2f"
         id="stop4298-2" />
      <stop
         offset=".38404"
         style="stop-color:#f0ce70"
         id="stop4300" />
      <stop
         offset=".5"
         style="stop-color:#e3ba46"
         id="stop4302" />
      <stop
         offset=".65417"
         style="stop-color:#ffffe4"
         id="stop4304" />
      <stop
         offset=".75895"
         style="stop-color:#ffffa0"
         id="stop4306" />
      <stop
         offset=".87947"
         style="stop-color:#feef76"
         id="stop4308" />
      <stop
         offset="1"
         style="stop-color:#dfb23b"
         id="stop4310" />
    </linearGradient>
    <filter
       style="color-interpolation-filters:sRGB"
       id="filter10067"
       x="-0.1344"
       width="1.2688"
       y="-0.1344"
       height="1.2688">
      <feGaussianBlur
         stdDeviation="0.67600671"
         id="feGaussianBlur10069" />
    </filter>
    <linearGradient
       gradientTransform="matrix(2.2538593,0,0,2.2538593,-49.43247,-213.01375)"
       gradientUnits="userSpaceOnUse"
       y2="99.086914"
       x2="109.1796"
       y1="49.107513"
       x1="109.1796"
       id="linearGradient4756"
       xlink:href="#linearGradient4754" />
    <linearGradient
       y2="91.209419"
       x2="79.27813"
       y1="91.209419"
       x1="25.419914"
       gradientTransform="matrix(0.43189651,0.00105658,-0.00105658,0.43189651,-87.902335,38.828459)"
       gradientUnits="userSpaceOnUse"
       id="linearGradient4918"
       xlink:href="#linearGradient4294" />
    <linearGradient
       y2="143.85352"
       x2="230.73633"
       y1="143.85352"
       x1="164.97461"
       gradientTransform="matrix(0.11427262,2.7955235e-4,-2.7955235e-4,0.11427262,-87.902335,38.828459)"
       gradientUnits="userSpaceOnUse"
       id="linearGradient4920"
       xlink:href="#linearGradient4294" />
  </defs>
  <metadata
     id="metadata4901">
    <rdf:RDF>
      <cc:Work
         rdf:about="">
        <dc:format>image/svg+xml</dc:format>
        <dc:type
           rdf:resource="http://purl.org/dc/dcmitype/StillImage" />
        <dc:title></dc:title>
      </cc:Work>
    </rdf:RDF>
  </metadata>
  <g
     transform="translate(-53.893867,130.33313)"
     id="layer1">
    <g
       id="g1083">
      <path
         style="color:#000000;font-style:normal;font-variant:normal;font-weight:normal;font-stretch:normal;font-size:medium;line-height:normal;font-family:sans-serif;font-variant-ligatures:normal;font-variant-position:normal;font-variant-caps:normal;font-variant-numeric:normal;font-variant-alternates:normal;font-feature-settings:normal;text-indent:0;text-align:start;text-decoration:none;text-decoration-line:none;text-decoration-style:solid;text-decoration-color:#000000;letter-spacing:normal;word-spacing:normal;text-transform:none;writing-mode:lr-tb;direction:ltr;text-orientation:mixed;dominant-baseline:auto;baseline-shift:baseline;text-anchor:start;white-space:normal;shape-padding:0;clip-rule:nonzero;display:inline;overflow:visible;visibility:visible;opacity:1;isolation:auto;mix-blend-mode:normal;color-interpolation:sRGB;color-interpolation-filters:linearRGB;solid-color:#000000;solid-opacity:1;vector-effect:none;fill:#ffffff;fill-opacity:1;fill-rule:nonzero;stroke:#05181f;stroke-width:1.19266725;stroke-linecap:butt;stroke-linejoin:miter;stroke-miterlimit:4;stroke-dasharray:none;stroke-dashoffset:0;stroke-opacity:1;color-rendering:auto;image-rendering:auto;shape-rendering:auto;text-rendering:auto;enable-background:accumulate"
         d="m 196.76596,-111.59394 c -68.47046,0 -124.132902,55.662445 -124.132902,124.132891 0,68.470445 55.662442,124.138719 124.132902,124.138719 68.47044,0 124.13871,-55.668274 124.13871,-124.138719 0,-68.470446 -55.66827,-124.132891 -124.13871,-124.132891 z m 0.002,7.42272 A 116.711,116.711 0 0 1 313.47962,12.540119 116.711,116.711 0 0 1 196.76828,129.25029 116.711,116.711 0 0 1 80.056946,12.540119 116.711,116.711 0 0 1 196.76828,-104.17122 Z"
         id="circle5034" />
      <circle
         style="fill:url(#linearGradient4756);fill-opacity:1;stroke-width:0.59633356"
         id="path4591"
         cx="196.76814"
         cy="12.539871"
         r="116.711" />
      <path
         style="opacity:1;fill:#0057be;fill-opacity:1;stroke:none;stroke-width:2.03684688"
         d="m 196.76828,-28.570797 c -62.47718,0 -113.486952,16.897983 -116.56225,38.1408949 A 116.711,116.711 0 0 0 80.056946,12.540119 116.711,116.711 0 0 0 196.76828,129.25029 116.711,116.711 0 0 0 313.47962,12.540119 a 116.711,116.711 0 0 0 -0.0839,-2.383008 c -2.21207,-21.51741 -53.57663,-38.727908 -116.62748,-38.727908 z"
         id="path4609" />
      <path
         style="opacity:1;fill:#0067be;fill-opacity:1;stroke:none;stroke-width:1.95248795"
         d="M 310.01499,13.732519 A 113.24684,38.043955 0 0 1 196.76814,51.776537 113.24684,38.043955 0 0 1 83.521295,13.732519 113.24684,38.043955 0 0 1 196.76814,-24.311411 113.24684,38.043955 0 0 1 310.01499,13.732519 Z"
         id="path5473" />
      <path
         id="path3782"
         d="M 282.44676,7.0644383 A 85.678613,28.78273 0 0 1 196.76814,35.847252 85.678613,28.78273 0 0 1 111.08953,7.0644383 85.678613,28.78273 0 0 1 196.76814,-21.718265 85.678613,28.78273 0 0 1 282.44676,7.0644383 Z"
         style="opacity:1;fill:#0077be;fill-opacity:1;stroke:none;stroke-width:1.4771843" />
      <path
         style="opacity:1;fill:#0087be;fill-opacity:1;stroke:none;stroke-width:1.08505869"
         d="M 259.70297,3.9619333 A 62.934822,21.142219 0 0 1 196.76814,25.104254 62.934822,21.142219 0 0 1 133.83332,3.9619333 62.934822,21.142219 0 0 1 196.76814,-17.180263 62.934822,21.142219 0 0 1 259.70297,3.9619333 Z"
         id="path4589" />
      <path
         id="path4593"
         d="M 234.89157,-1.1317143 A 38.123431,12.807121 0 0 1 196.76814,11.675451 38.123431,12.807121 0 0 1 158.64472,-1.1317143 38.123431,12.807121 0 0 1 196.76814,-13.93883 38.123431,12.807121 0 0 1 234.89157,-1.1317143 Z"
         style="opacity:1;fill:#0097be;fill-opacity:1;stroke:none;stroke-width:0.65728575" />
      <path
         d="m 124.17532,-44.662354 -0.26434,0.893925 -0.75372,-0.548525 -0.7393,0.567824 -0.28736,-0.886794 -0.93185,0.02483 0.28876,-0.886336 -0.76849,-0.527642 0.7546,-0.547329 -0.31158,-0.878576 0.93219,7.4e-4 0.26434,-0.893925 0.75372,0.548525 0.73929,-0.567824 0.28736,0.886794 0.93186,-0.02483 -0.28876,0.886336 0.76848,0.527642 -0.75459,0.547329 0.31158,0.878576 z"
         id="path4085"
         style="fill:#0097be;fill-opacity:1;stroke-width:0.45414606" />
      <path
         style="fill:#0077be;fill-opacity:1;stroke-width:0.45923451"
         id="path4087"
         d="m 127.32012,-66.468849 -0.20959,0.708802 -0.59764,-0.434932 -0.58619,0.450234 -0.22785,-0.703148 -0.73888,0.01969 0.22896,-0.702785 -0.60934,-0.418373 0.59832,-0.433983 -0.24705,-0.696633 0.73914,5.86e-4 0.2096,-0.708802 0.59764,0.434931 0.58619,-0.450233 0.22785,0.703148 0.73888,-0.01969 -0.22896,0.702786 0.60934,0.418373 -0.59833,0.433983 0.24706,0.696633 z" />
      <path
         style="fill:#0077be;fill-opacity:1;stroke-width:0.89564818"
         id="path4089"
         d="m 173.02865,-49.215741 -0.23979,0.8109 -0.68372,-0.49758 -0.67063,0.515086 -0.26067,-0.804431 -0.84531,0.02253 0.26195,-0.804017 -0.69712,-0.478636 0.68451,-0.496495 -0.28264,-0.796978 0.84561,6.71e-4 0.23979,-0.8109 0.68372,0.49758 0.67063,-0.515086 0.26067,0.804431 0.84531,-0.02253 -0.26194,0.804017 0.69711,0.478636 -0.68451,0.496495 0.28264,0.796978 z" />
      <path
         d="m 169.58348,-72.602069 -0.26432,0.893855 -0.75366,-0.548483 -0.73924,0.567781 -0.28734,-0.886726 -0.93179,0.02483 0.28875,-0.886268 -0.76843,-0.527601 0.75453,-0.547288 -0.31155,-0.878509 0.93212,7.39e-4 0.26432,-0.893855 0.75366,0.548483 0.73924,-0.567781 0.28734,0.886726 0.93178,-0.02483 -0.28874,0.886268 0.76843,0.527601 -0.75453,0.547288 0.31155,0.878509 z"
         id="path4091"
         style="fill:#0077be;fill-opacity:1;stroke-width:0.54200852" />
      <path
         d="m 146.03755,-61.601015 -0.11304,0.382273 -0.32232,-0.234568 -0.31615,0.242821 -0.12288,-0.379224 -0.3985,0.01062 0.12349,-0.379029 -0.32863,-0.225638 0.32269,-0.234057 -0.13325,-0.37571 0.39864,3.16e-4 0.11304,-0.382273 0.32232,0.234568 0.31615,-0.242821 0.12288,0.379224 0.3985,-0.01062 -0.12349,0.379028 0.32863,0.225639 -0.32269,0.234057 0.13325,0.37571 z"
         id="path4093"
         style="fill:#0077be;fill-opacity:1;stroke-width:0.24767581" />
      <path
         style="fill:#0077be;fill-opacity:1;stroke-width:0.37459096"
         id="path4095"
         d="m 148.81957,-58.230897 -0.17097,0.57816 -0.48748,-0.354768 -0.47815,0.36725 -0.18586,-0.573548 -0.60269,0.01606 0.18676,-0.573253 -0.49703,-0.34126 0.48805,-0.353994 -0.20152,-0.568233 0.60291,4.78e-4 0.17096,-0.57816 0.48748,0.354767 0.47815,-0.367249 0.18586,0.573548 0.60269,-0.01606 -0.18676,0.573252 0.49703,0.341261 -0.48804,0.353994 0.20151,0.568233 z" />
      <path
         d="m 150.71343,-55.107799 -0.15376,0.519957 -0.43841,-0.319054 -0.43001,0.330279 -0.16715,-0.515809 -0.54202,0.01445 0.16796,-0.515544 -0.44699,-0.306907 0.43891,-0.318357 -0.18123,-0.51103 0.54221,4.3e-4 0.15376,-0.519958 0.43841,0.319054 0.43001,-0.330279 0.16715,0.51581 0.54202,-0.01445 -0.16796,0.515543 0.44699,0.306907 -0.43891,0.318358 0.18123,0.51103 z"
         id="path4097"
         style="fill:#0077be;fill-opacity:1;stroke-width:0.33688146" />
      <path
         style="fill:#9db3cc;fill-opacity:1;stroke-width:0.14729804"
         d="m 245.38736,-78.476396 a 17.780977,17.780977 0 0 0 -17.78106,17.781061 17.780977,17.780977 0 0 0 17.78106,17.781061 17.780977,17.780977 0 0 0 17.78108,-17.781061 17.780977,17.780977 0 0 0 -0.1625,-2.228172 13.572463,13.572463 0 0 1 -13.40988,11.591954 13.572463,13.572463 0 0 1 -13.57272,-13.572423 13.572463,13.572463 0 0 1 11.59455,-13.414767 17.780977,17.780977 0 0 0 -2.23046,-0.157658 z"
         id="path4634" />
      <path
         style="opacity:1;fill:#0097be;fill-opacity:1;stroke:none;stroke-width:0.65728575"
         d="M 234.89157,-1.1317143 A 38.123431,12.807121 0 0 1 196.76814,11.675451 38.123431,12.807121 0 0 1 158.64472,-1.1317143 38.123431,12.807121 0 0 1 196.76814,-13.93883 38.123431,12.807121 0 0 1 234.89157,-1.1317143 Z"
         id="path4758" />
      <path
         style="fill:#e4bc41;fill-opacity:1;stroke:none;stroke-width:36.84984207;stroke-linecap:square;stroke-linejoin:round;stroke-miterlimit:4;stroke-dasharray:none;stroke-opacity:1;paint-order:normal"
         id="path4249"
         d="m 7471.3493,3736.1909 -135.2295,46.7347 12.3085,142.5469 -136.8729,-41.6767 -73.8292,122.5577 -86.2355,-114.169 -131.7667,55.7555 -2.6592,-143.0527 -139.3738,-32.3434 81.933,-117.295 -93.7448,-108.0882 135.2295,-46.7347 -12.3085,-142.547 136.8729,41.6767 73.8292,-122.5576 86.2356,114.169 131.7667,-55.7555 2.6591,143.0527 139.3738,32.3433 -81.933,117.2951 z"
         transform="matrix(0.01813626,8.1454135e-4,-8.1454135e-4,0.01813626,129.64119,-144.74479)" />
      <path
         id="path930"
         style="font-style:normal;font-variant:normal;font-weight:normal;font-stretch:normal;font-size:17.9378624px;line-height:1.25;font-family:'IBM Plex Sans';-inkscape-font-specification:'IBM Plex Sans';letter-spacing:0px;word-spacing:0px;fill:#e4bc41;fill-opacity:1;stroke:none;stroke-width:0.44844654"
         d="m 222.06896,103.98997 v -0.64576 h 4.23333 v 0.64576 z" />
      <path
         id="path932"
         style="font-style:normal;font-variant:normal;font-weight:normal;font-stretch:normal;font-size:17.9378624px;line-height:1.25;font-family:'IBM Plex Sans';-inkscape-font-specification:'IBM Plex Sans';letter-spacing:0px;word-spacing:0px;fill:#e4bc41;fill-opacity:1;stroke:none;stroke-width:0.44844654"
         d="m 231.98859,109.35339 q -1.13008,0 -1.97316,-0.41257 -0.82515,-0.41257 -1.45297,-1.29152 l 0.48432,-0.35876 q 0.60989,0.8072 1.29153,1.16596 0.69957,0.34082 1.66822,0.34082 1.21977,0 1.8476,-0.50226 0.62782,-0.50226 0.62782,-1.45297 0,-0.91483 -0.53813,-1.36328 -0.5202,-0.44844 -1.61441,-0.62782 l -0.77133,-0.12557 q -0.60988,-0.0897 -1.11214,-0.26906 -0.48433,-0.17938 -0.84308,-0.46639 -0.34082,-0.30494 -0.53814,-0.73545 -0.17938,-0.43051 -0.17938,-1.0404 0,-0.59195 0.21526,-1.04039 0.23319,-0.44845 0.62782,-0.75339 0.41257,-0.30495 0.95071,-0.44845 0.55607,-0.161441 1.1839,-0.161441 1.14802,0 1.86553,0.412571 0.71752,0.39463 1.1839,0.93277 l -0.44844,0.41257 q -0.19732,-0.23319 -0.44845,-0.44845 -0.23319,-0.21525 -0.53814,-0.37669 -0.30494,-0.17938 -0.71751,-0.26907 -0.39463,-0.10763 -0.91483,-0.10763 -1.07627,0 -1.72204,0.46639 -0.62782,0.46638 -0.62782,1.36328 0,0.91483 0.53813,1.34533 0.53814,0.41258 1.63235,0.59195 l 0.77133,0.12557 q 1.27359,0.19732 1.95522,0.78927 0.69958,0.57401 0.69958,1.73997 0,1.21977 -0.82514,1.90141 -0.82514,0.6637 -2.27811,0.6637 z" />
      <path
         id="path934"
         style="font-style:normal;font-variant:normal;font-weight:normal;font-stretch:normal;font-size:17.9378624px;line-height:1.25;font-family:'IBM Plex Sans';-inkscape-font-specification:'IBM Plex Sans';letter-spacing:0px;word-spacing:0px;fill:#e4bc41;fill-opacity:1;stroke:none;stroke-width:0.44844654"
         d="m 241.06512,109.35339 q -1.81172,0 -2.87006,-1.21977 -1.04039,-1.21978 -1.04039,-3.5517 0,-2.31398 1.02246,-3.53376 1.02246,-1.237711 2.81624,-1.237711 0.84308,0 1.52472,0.322881 0.69958,0.32288 1.1839,0.91483 0.50226,0.59195 0.77133,1.43503 0.26906,0.82514 0.26906,1.8476 v 0.28701 h -6.92401 v 0.48432 q 0,0.84308 0.21525,1.52472 0.21526,0.68164 0.62783,1.16596 0.43051,0.48432 1.02246,0.75339 0.60988,0.25113 1.38121,0.25113 2.17048,0 2.99563,-2.08079 l 0.48432,0.26906 q -0.41257,1.07628 -1.29153,1.72204 -0.87895,0.64576 -2.18842,0.64576 z m -0.0718,-8.98687 q -0.75339,0 -1.34534,0.26907 -0.57401,0.25113 -0.98658,0.73545 -0.41257,0.48433 -0.62783,1.16596 -0.21525,0.68164 -0.21525,1.50678 v 0.0718 h 6.24238 v -0.10763 q 0,-0.82514 -0.2332,-1.48884 -0.21525,-0.68164 -0.62782,-1.14803 -0.39463,-0.48432 -0.96865,-0.73545 -0.55607,-0.26907 -1.23771,-0.26907 z" />
      <path
         id="path888"
         style="font-style:normal;font-variant:normal;font-weight:600;font-stretch:normal;font-size:19.03216743px;line-height:1.25;font-family:'IBM Plex Sans';-inkscape-font-specification:'IBM Plex Sans Semi-Bold';letter-spacing:0px;word-spacing:0px;fill:#ffffff;fill-opacity:1;stroke:none;stroke-width:0.47580409"
         d="m 148.98711,72.636055 -4.33933,-13.284453 h 2.56934 l 2.03644,6.470937 1.18,4.415463 h 0.0571 l 1.16096,-4.415463 2.03645,-6.470937 h 2.49321 l -4.33933,13.284453 z" />
      <path
         id="path890"
         style="font-style:normal;font-variant:normal;font-weight:600;font-stretch:normal;font-size:19.03216743px;line-height:1.25;font-family:'IBM Plex Sans';-inkscape-font-specification:'IBM Plex Sans Semi-Bold';letter-spacing:0px;word-spacing:0px;fill:#ffffff;fill-opacity:1;stroke:none;stroke-width:0.47580409"
         d="m 157.49446,72.636055 v -2.01741 h 1.75096 v -9.249633 h -1.75096 v -2.01741 h 6.0332 v 2.01741 h -1.76999 v 9.249633 h 1.76999 v 2.01741 z" />
      <path
         id="path892"
         style="font-style:normal;font-variant:normal;font-weight:600;font-stretch:normal;font-size:19.03216743px;line-height:1.25;font-family:'IBM Plex Sans';-inkscape-font-specification:'IBM Plex Sans Semi-Bold';letter-spacing:0px;word-spacing:0px;fill:#ffffff;fill-opacity:1;stroke:none;stroke-width:0.47580409"
         d="m 175.74625,72.864441 q -1.31322,0 -2.37902,-0.418708 -1.04677,-0.43774 -1.80806,-1.294187 -0.74226,-0.856448 -1.14193,-2.112571 -0.39968,-1.275155 -0.39968,-2.949986 0,-1.67483 0.39968,-2.969018 0.39967,-1.313219 1.14193,-2.188699 0.76129,-0.894512 1.80806,-1.351284 1.0658,-0.456772 2.37902,-0.456772 1.78902,0 2.96901,0.761287 1.18,0.761287 1.88419,2.302892 l -2.15064,1.14193 q -0.28548,-0.894512 -0.93257,-1.427412 -0.6471,-0.551933 -1.76999,-0.551933 -1.40838,0 -2.2458,0.951608 -0.81838,0.951608 -0.81838,2.664504 v 2.093538 q 0,1.731927 0.81838,2.664503 0.83742,0.913544 2.2458,0.913544 1.12289,0 1.82708,-0.609029 0.72323,-0.609029 1.04677,-1.503541 l 2.03645,1.199026 q -0.72323,1.484509 -1.92225,2.321925 -1.19903,0.818383 -2.98805,0.818383 z" />
      <path
         id="path894"
         style="font-style:normal;font-variant:normal;font-weight:600;font-stretch:normal;font-size:19.03216743px;line-height:1.25;font-family:'IBM Plex Sans';-inkscape-font-specification:'IBM Plex Sans Semi-Bold';letter-spacing:0px;word-spacing:0px;fill:#ffffff;fill-opacity:1;stroke:none;stroke-width:0.47580409"
         d="m 188.02196,72.864441 q -1.31322,0 -2.37902,-0.43774 -1.0658,-0.43774 -1.82709,-1.313219 -0.74225,-0.87548 -1.16096,-2.150635 -0.41871,-1.275156 -0.41871,-2.969018 0,-1.674831 0.41871,-2.949986 0.41871,-1.294188 1.16096,-2.169667 0.76129,-0.87548 1.82709,-1.31322 1.0658,-0.43774 2.37902,-0.43774 1.31322,0 2.37902,0.43774 1.0658,0.43774 1.82709,1.31322 0.76129,0.875479 1.16096,2.169667 0.41871,1.275155 0.41871,2.949986 0,1.693862 -0.41871,2.969018 -0.39967,1.275155 -1.16096,2.150635 -0.76129,0.875479 -1.82709,1.313219 -1.0658,0.43774 -2.37902,0.43774 z m 0,-2.226764 q 1.42741,0 2.26483,-0.951608 0.85645,-0.951608 0.85645,-2.664503 v -2.055474 q 0,-1.712896 -0.85645,-2.664504 -0.83742,-0.951608 -2.26483,-0.951608 -1.42741,0 -2.28386,0.951608 -0.83741,0.951608 -0.83741,2.664504 v 2.055474 q 0,1.712895 0.83741,2.664503 0.85645,0.951608 2.28386,0.951608 z" />
      <path
         id="path896"
         style="font-style:normal;font-variant:normal;font-weight:600;font-stretch:normal;font-size:19.03216743px;line-height:1.25;font-family:'IBM Plex Sans';-inkscape-font-specification:'IBM Plex Sans Semi-Bold';letter-spacing:0px;word-spacing:0px;fill:#ffffff;fill-opacity:1;stroke:none;stroke-width:0.47580409"
         d="m 200.16448,65.822539 -1.37031,-2.759664 h -0.0571 v 9.57318 h -2.37902 V 59.351602 h 2.75966 l 3.99676,6.813516 1.37032,2.759664 h 0.0571 v -9.57318 h 2.37902 v 13.284453 h -2.75966 z" />
      <path
         id="path898"
         style="font-style:normal;font-variant:normal;font-weight:600;font-stretch:normal;font-size:19.03216743px;line-height:1.25;font-family:'IBM Plex Sans';-inkscape-font-specification:'IBM Plex Sans Semi-Bold';letter-spacing:0px;word-spacing:0px;fill:#ffffff;fill-opacity:1;stroke:none;stroke-width:0.47580409"
         d="m 212.55442,72.636055 h -2.51225 V 59.351602 h 5.99514 q 0.91354,0 1.63676,0.285483 0.72323,0.285482 1.21806,0.837415 0.51387,0.532901 0.78032,1.294187 0.28548,0.761287 0.28548,1.693863 0,1.370316 -0.62806,2.359989 -0.60903,0.989673 -1.84612,1.40838 l 2.7216,5.405136 h -2.79773 l -2.47418,-5.119653 h -2.37902 z m 3.23547,-7.232224 q 0.72322,0 1.14193,-0.380643 0.41871,-0.399675 0.41871,-1.122898 v -0.87548 q 0,-0.723222 -0.41871,-1.103865 -0.41871,-0.380644 -1.14193,-0.380644 h -3.23547 v 3.86353 z" />
      <path
         id="path900"
         style="font-style:normal;font-variant:normal;font-weight:600;font-stretch:normal;font-size:19.03216743px;line-height:1.25;font-family:'IBM Plex Sans';-inkscape-font-specification:'IBM Plex Sans Semi-Bold';letter-spacing:0px;word-spacing:0px;fill:#ffffff;fill-opacity:1;stroke:none;stroke-width:0.47580409"
         d="m 227.89434,72.864441 q -1.31322,0 -2.37902,-0.43774 -1.0658,-0.43774 -1.82709,-1.313219 -0.74225,-0.87548 -1.16096,-2.150635 -0.41871,-1.275156 -0.41871,-2.969018 0,-1.674831 0.41871,-2.949986 0.41871,-1.294188 1.16096,-2.169667 0.76129,-0.87548 1.82709,-1.31322 1.0658,-0.43774 2.37902,-0.43774 1.31322,0 2.37902,0.43774 1.0658,0.43774 1.82709,1.31322 0.76129,0.875479 1.16096,2.169667 0.41871,1.275155 0.41871,2.949986 0,1.693862 -0.41871,2.969018 -0.39967,1.275155 -1.16096,2.150635 -0.76129,0.875479 -1.82709,1.313219 -1.0658,0.43774 -2.37902,0.43774 z m 0,-2.226764 q 1.42741,0 2.26483,-0.951608 0.85645,-0.951608 0.85645,-2.664503 v -2.055474 q 0,-1.712896 -0.85645,-2.664504 -0.83742,-0.951608 -2.26483,-0.951608 -1.42741,0 -2.28386,0.951608 -0.83741,0.951608 -0.83741,2.664504 v 2.055474 q 0,1.712895 0.83741,2.664503 0.85645,0.951608 2.28386,0.951608 z" />
      <path
         id="path902"
         style="font-style:normal;font-variant:normal;font-weight:600;font-stretch:normal;font-size:19.03216743px;line-height:1.25;font-family:'IBM Plex Sans';-inkscape-font-specification:'IBM Plex Sans Semi-Bold';letter-spacing:0px;word-spacing:0px;fill:#ffffff;fill-opacity:1;stroke:none;stroke-width:0.47580409"
         d="m 236.23043,59.351602 h 4.83417 q 1.29419,0 2.34096,0.418708 1.0658,0.418707 1.80805,1.256123 0.76129,0.818383 1.16097,2.074506 0.4187,1.237091 0.4187,2.89289 0,1.655798 -0.4187,2.911921 -0.39968,1.237091 -1.16097,2.074506 -0.74225,0.818384 -1.80805,1.237091 -1.04677,0.418708 -2.34096,0.418708 h -4.83417 z m 4.83417,11.057689 q 1.40838,0 2.22676,-0.818383 0.83742,-0.837415 0.83742,-2.55031 v -2.093539 q 0,-1.712895 -0.83742,-2.531278 -0.81838,-0.837415 -2.22676,-0.837415 h -2.32192 v 8.830925 z" />
      <g
         id="g5028"
         transform="matrix(2.2538593,0,0,2.2538593,344.14771,-213.01375)">
        <path
           id="path4862"
           transform="scale(0.26458333)"
           d="m -247.36719,287.43164 -13.17383,4.42383 0.28516,63.19726 h 25.44531 l 0.59375,-63.13281 z"
           style="fill:#abaaab;fill-opacity:1;stroke:none;stroke-width:0.95391011;stroke-miterlimit:4;stroke-dasharray:none;stroke-opacity:1" />
        <path
           id="path4866"
           transform="scale(0.26458333)"
           d="m -255.92969,290.59961 -3.74804,1.25781 0.28515,63.19531 h 3.06641 c 0.0829,-21.49401 0.23535,-42.97037 0.39648,-64.45312 z"
           style="fill:#c2c2c2;fill-opacity:1;stroke:none;stroke-width:1.94547546;stroke-miterlimit:4;stroke-dasharray:none;stroke-opacity:1;filter:url(#filter5079)" />
        <path
           id="path4868"
           transform="scale(0.26458333)"
           d="m -238.41016,290.64062 c 0.056,21.46897 0.10219,42.9323 0.0801,64.41211 h 3.06641 l 0.59375,-63.13476 z"
           style="fill:#c2c2c2;fill-opacity:1;stroke:none;stroke-width:1.94547546;stroke-miterlimit:4;stroke-dasharray:none;stroke-opacity:1;filter:url(#filter5079)" />
        <path
           id="rect4864"
           transform="scale(0.26458333)"
           d="m -247.11133,283.53125 c -1.08484,-0.003 -1.96002,0.94145 -1.96289,2.11523 l -0.16992,69.40625 h 3.91602 l 0.16992,-69.39843 c 0.003,-1.17378 -0.86828,-2.1204 -1.95313,-2.12305 z"
           style="fill:#d8d8d8;fill-opacity:1;stroke:none;stroke-width:1.75336564;stroke-miterlimit:4;stroke-dasharray:none;stroke-opacity:1" />
        <path
           id="path4870"
           transform="scale(0.26458333)"
           d="m -247.10938,283.53125 c -1.08484,-0.003 -1.96197,0.94146 -1.96484,2.11523 l -0.16992,69.40625 h 1.74023 l 0.16993,-69.40429 c 0.002,-0.73892 0.51018,-1.23774 1.08593,-1.23633 0.57576,0.001 1.07994,0.50327 1.07813,1.24219 l -0.16992,69.39843 h 0.0117 l 0.16992,-69.39648 c 0.003,-1.17378 -0.86633,-2.12235 -1.95118,-2.125 z"
           style="color:#000000;font-style:normal;font-variant:normal;font-weight:normal;font-stretch:normal;font-size:medium;line-height:normal;font-family:sans-serif;font-variant-ligatures:normal;font-variant-position:normal;font-variant-caps:normal;font-variant-numeric:normal;font-variant-alternates:normal;font-feature-settings:normal;text-indent:0;text-align:start;text-decoration:none;text-decoration-line:none;text-decoration-style:solid;text-decoration-color:#000000;letter-spacing:normal;word-spacing:normal;text-transform:none;writing-mode:lr-tb;direction:ltr;text-orientation:mixed;dominant-baseline:auto;baseline-shift:baseline;text-anchor:start;white-space:normal;shape-padding:0;clip-rule:nonzero;display:inline;overflow:visible;visibility:visible;opacity:0.15899999;isolation:auto;mix-blend-mode:normal;color-interpolation:sRGB;color-interpolation-filters:linearRGB;solid-color:#000000;solid-opacity:1;vector-effect:none;fill:#000000;fill-opacity:1;fill-rule:nonzero;stroke:none;stroke-width:1.75336564;stroke-linecap:butt;stroke-linejoin:miter;stroke-miterlimit:4;stroke-dasharray:none;stroke-dashoffset:0;stroke-opacity:1;filter:url(#filter5120);color-rendering:auto;image-rendering:auto;shape-rendering:auto;text-rendering:auto;enable-background:accumulate" />
        <path
           style="fill:#47362d;fill-opacity:1;stroke:none;stroke-width:0.25377229;stroke-miterlimit:4;stroke-dasharray:none;stroke-opacity:1"
           d="m -67.077776,58.976998 -0.537898,16.516979 c 0.486445,0.488831 1.40376,0.487757 2.215971,0.489744 0.739653,0.0018 1.721533,0.01526 2.218119,-0.478896 l -0.457078,-16.519414 c -0.190059,-0.331061 -1.145812,-0.231349 -1.718998,-0.232751 -0.573186,-0.0014 -1.432921,-0.06146 -1.720116,0.224338 z"
           id="path4874" />
        <path
           style="fill:none;fill-opacity:1;stroke:none;stroke-width:0.11427295px;stroke-linecap:butt;stroke-linejoin:miter;stroke-opacity:1"
           d="m -67.084568,58.803831 -0.01634,1.871316 3.535311,-0.646604 -0.06682,-1.245525 z"
           id="path4876" />
        <path
           style="fill:#221a17;fill-opacity:1;stroke:none;stroke-width:0.11427295px;stroke-linecap:butt;stroke-linejoin:miter;stroke-opacity:1"
           d="m -66.753694,58.769289 c -0.361127,-0.02349 -0.330874,0.03454 -0.336332,0.142949 l -0.08948,1.777001 3.583551,-0.638045 -0.0337,-1.21669 c -9.08e-4,-0.01716 -0.0028,-0.05149 -0.156799,-0.05186 z"
           id="path4878" />
        <path
           style="fill:#221a17;fill-opacity:1;stroke:none;stroke-width:0.11427295px;stroke-linecap:butt;stroke-linejoin:miter;stroke-opacity:1"
           d="m -67.158521,60.871924 3.565502,-0.65549 0.02507,1.428477 -3.644152,0.691009 z"
           id="path4880" />
        <path
           style="fill:#221a17;fill-opacity:1;stroke:none;stroke-width:0.11427295px;stroke-linecap:butt;stroke-linejoin:miter;stroke-opacity:1"
           d="m -67.219606,62.485886 3.679862,-0.690922 0.04596,1.649933 -3.779676,0.619257 z"
           id="path4882" />
        <path
           style="fill:#221a17;fill-opacity:1;stroke:none;stroke-width:0.11427295px;stroke-linecap:butt;stroke-linejoin:miter;stroke-opacity:1"
           d="m -67.259579,64.228456 3.758145,-0.576457 0.05321,1.607098 -3.886684,0.569 z"
           id="path4884" />
        <path
           style="fill:#221a17;fill-opacity:1;stroke:none;stroke-width:0.11427295px;stroke-linecap:butt;stroke-linejoin:miter;stroke-opacity:1"
           d="m -67.33542,66.035216 3.886667,-0.561858 0.03892,1.607064 -3.97953,0.568773 z"
           id="path4886" />
        <path
           style="fill:#221a17;fill-opacity:1;stroke:none;stroke-width:0.11427295px;stroke-linecap:butt;stroke-linejoin:miter;stroke-opacity:1"
           d="m -67.375533,67.834923 3.979495,-0.554489 0.03899,1.578495 -4.093646,0.504215 z"
           id="path4888" />
        <path
           style="fill:#221a17;fill-opacity:1;stroke:none;stroke-width:0.11427295px;stroke-linecap:butt;stroke-linejoin:miter;stroke-opacity:1"
           d="m -67.44397,69.534571 4.107808,-0.454186 0.0458,1.714211 -4.222028,0.43248 z"
           id="path4890" />
        <path
           style="fill:#221a17;fill-opacity:1;stroke:none;stroke-width:0.11427295px;stroke-linecap:butt;stroke-linejoin:miter;stroke-opacity:1"
           d="m -67.505859,71.477066 4.207797,-0.453942 0.06711,1.764258 -4.329019,0.375082 z"
           id="path4892" />
        <path
           style="fill:#221a17;fill-opacity:1;stroke:none;stroke-width:0.11427295px;stroke-linecap:butt;stroke-linejoin:miter;stroke-opacity:1"
           d="m -67.574785,73.37669 4.343216,-0.339336 0.03917,1.507075 -4.443274,0.36766 z"
           id="path4894" />
        <path
           style="fill:#221a17;fill-opacity:1;stroke:none;stroke-width:0.11427295px;stroke-linecap:butt;stroke-linejoin:miter;stroke-opacity:1"
           d="m -67.636062,75.069214 4.457454,-0.324774 0.0049,0.928483 -4.478023,-0.02524 z"
           id="path4896" />
        <path
           style="opacity:0.11400003;fill:#151415;fill-opacity:1;stroke:none;stroke-width:0.25238872;stroke-miterlimit:4;stroke-dasharray:none;stroke-opacity:1"
           d="m -65.449412,76.049439 -3.48552,1.170586 0.002,0.443484 c 1.156477,-0.236069 2.345175,-0.358495 3.546699,-0.358471 1.155575,0.0052 2.298761,0.123293 3.412397,0.346927 l 0.0041,-0.414901 z"
           id="path4900" />
        <path
           style="fill:url(#linearGradient4918);fill-opacity:1;stroke:#e6d089;stroke-width:0.08637957;stroke-miterlimit:4;stroke-dasharray:none;stroke-opacity:1;paint-order:stroke fill markers"
           d="m -65.382067,75.575772 c -4.369456,-0.0091 -8.559322,1.014443 -11.638282,2.843091 -0.0021,0.864115 -0.0041,1.852908 0.671857,2.532171 3.007883,-2.494338 6.91329,-3.874618 10.962754,-3.874542 4.049019,0.01819 7.947897,1.415791 10.944569,3.923227 0.677693,-0.674386 0.679677,-1.577524 0.681983,-2.520156 -3.068588,-1.844886 -7.252975,-2.890287 -11.622881,-2.903791 z"
           id="path4902" />
        <path
           id="path4904"
           d="m -63.973081,58.835476 -2.683935,0.01752 -1.908451,-2.050742 -0.01502,-2.917713 1.887206,-2.075526 2.683935,-0.01752 1.908449,2.050741 0.01503,2.917712 z"
           style="fill:#e5bc4b;fill-opacity:1;stroke:none;stroke-width:0.38794369;stroke-miterlimit:4;stroke-dasharray:none;stroke-opacity:1" />
        <circle
           style="opacity:0.50199998;fill:#fff990;fill-opacity:1;stroke:none;stroke-width:0.49960059;stroke-miterlimit:4;stroke-dasharray:none;stroke-opacity:1;paint-order:stroke fill markers;filter:url(#filter10067)"
           id="circle4906"
           cx="53.88456"
           cy="38.172359"
           r="6.0357742"
           transform="matrix(0.47251512,0.00115594,-0.00135812,0.55515992,-89.998337,34.201535)" />
        <path
           style="opacity:0.15500004;fill:#161616;fill-opacity:1;stroke:none;stroke-width:0.38794369;stroke-miterlimit:4;stroke-dasharray:none;stroke-opacity:1"
           d="m -64.009415,51.791535 -2.683904,0.01754 -1.887237,2.075515 0.01518,2.917577 1.908391,2.050875 2.6839,-0.01754 0.07833,-0.08596 -2.500885,0.0162 -1.860977,-1.999648 -0.01469,-2.845263 1.840468,-2.023849 2.504231,-0.01641 z"
           id="path4908" />
        <path
           style="opacity:0.91000001;fill:url(#linearGradient4920);fill-opacity:1;stroke:#e6d089;stroke-width:0.08637957;stroke-miterlimit:4;stroke-dasharray:none;stroke-opacity:1;paint-order:stroke fill markers"
           d="m -63.803281,51.374004 -3.102165,0.01942 -2.181112,2.320751 0.01746,3.262857 2.206203,2.293542 3.102166,-0.01942 2.181112,-2.320974 -0.01769,-3.262635 z m -0.238932,0.505164 1.860974,1.999872 0.01471,2.845263 -1.840244,2.023849 -2.617392,0.01703 -1.860977,-1.999649 -0.01469,-2.845263 1.840463,-2.023849 z"
           id="path4910" />
        <path
           style="opacity:0.91000001;fill:#daa520;fill-opacity:0.61409397;stroke:none;stroke-width:0.02455031;stroke-linecap:square;stroke-linejoin:round;stroke-miterlimit:4;stroke-dasharray:none;stroke-opacity:1;paint-order:stroke markers fill"
           d="m -65.339,52.558777 a 0.28562966,0.28562966 0 0 0 -0.111985,0.01863 0.28562966,0.28562966 0 0 0 -0.123915,0.09203 0.28562966,0.28562966 0 0 0 -0.05935,0.189174 l -0.774726,2.219481 -0.08854,0.253636 -0.394641,-0.396571 -0.447122,0.444946 0.0174,0.01748 -0.01749,0.01736 0.601714,0.604672 -0.489287,1.401754 0.03746,-0.07746 -0.02707,0.07749 0.613344,-1.266601 0.820046,0.824066 0.444943,0.44713 0.447138,-0.444948 0.815937,-0.811961 0.60328,1.261475 -0.02671,-0.07762 0.03708,0.07764 -0.02655,-0.07736 0.03697,0.07738 -0.482037,-1.402966 0.605834,-0.602882 -0.01739,-0.01745 0.01748,-0.0174 -0.444944,-0.447129 -0.397735,0.395796 -0.08766,-0.25523 -0.774173,-2.253286 a 0.28562967,0.28562967 0 0 0 -0.0585,-0.159446 0.28562967,0.28562967 0 0 0 -0.123502,-0.09263 0.28562967,0.28562967 0 0 0 -0.102691,-0.01897 0.28562967,0.28562967 0 0 0 -0.006,-1.25e-4 0.28562967,0.28562967 0 0 0 -0.0048,6.2e-5 0.28562967,0.28562967 0 0 0 -0.0048,-8.5e-5 0.28562967,0.28562967 0 0 0 -0.006,5.8e-5 0.28562966,0.28562966 0 0 0 -0.0011,-1.48e-4 z m 0.0048,0.97676 0.791958,1.655942 0.167894,0.351103 -0.961143,0.956447 -0.964492,-0.969261 0.165706,-0.342184 z m -0.0062,1.142324 c -0.127351,-3.12e-4 -0.22739,0.03492 -0.329172,0.116888 -0.159915,0.128591 -0.234461,0.291229 -0.234994,0.508876 -4.02e-4,0.164445 0.04764,0.30161 0.140866,0.406632 0.09971,0.113112 0.24784,0.179568 0.40261,0.179946 0.135424,3.32e-4 0.23063,-0.04138 0.335675,-0.145909 l 0.05926,0.145241 0.06773,1.66e-4 8.68e-4,-0.354686 c 2.13e-4,-0.08705 2.17e-4,-0.08864 0.0098,-0.09991 0.0145,-0.01609 0.04843,-0.02248 0.135487,-0.02227 l 0.02415,5.9e-5 1.86e-4,-0.07576 -0.512679,-0.0013 -1.85e-4,0.07576 0.0306,7.5e-5 c 0.13542,3.31e-4 0.146711,0.0085 0.146495,0.09709 -1.7e-4,0.06932 -0.01334,0.133805 -0.0327,0.172449 -0.04045,0.0789 -0.143804,0.133445 -0.248594,0.133189 -0.103214,-2.53e-4 -0.207839,-0.05369 -0.262463,-0.134439 -0.05939,-0.08881 -0.08492,-0.203358 -0.08449,-0.375863 8.79e-4,-0.359521 0.120692,-0.551088 0.344772,-0.55054 0.183794,4.49e-4 0.310829,0.132961 0.376308,0.391076 l 0.06929,1.69e-4 -0.02148,-0.45307 -0.06128,-1.5e-4 -0.06308,0.09816 c -0.104596,-0.08409 -0.175498,-0.11166 -0.293194,-0.111948 z"
           id="path4912" />
      </g>
      <path
         id="path905"
         style="font-style:normal;font-variant:normal;font-weight:200;font-stretch:normal;font-size:14.87942982px;line-height:1.25;font-family:'IBM Plex Sans';-inkscape-font-specification:'IBM Plex Sans Ultra-Light';letter-spacing:0px;word-spacing:0px;fill:#00c7be;fill-opacity:1;stroke:none;stroke-width:0.37198576"
         d="m 150.2651,88.801637 h -0.0446 q -0.25295,0.535659 -0.84812,0.952283 -0.59518,0.401745 -1.54746,0.401745 -1.48795,0 -2.3212,-0.996922 -0.81836,-1.011801 -0.81836,-2.961006 0,-1.949206 0.81836,-2.946127 0.83325,-1.011802 2.3212,-1.011802 0.95228,0 1.54746,0.401745 0.59517,0.401745 0.84812,0.952283 h 0.0446 v -4.627502 h 0.52078 v 11.010778 h -0.52078 z m -2.36583,0.877886 q 0.47614,0 0.90765,-0.133915 0.4315,-0.133915 0.74397,-0.386865 0.32735,-0.25295 0.52078,-0.595177 0.19343,-0.357106 0.19343,-0.78861 v -3.184198 q 0,-0.416624 -0.19343,-0.758851 -0.19343,-0.357106 -0.52078,-0.595177 -0.31247,-0.25295 -0.74397,-0.386865 -0.43151,-0.148794 -0.90765,-0.148794 -1.26475,0 -1.96408,0.833248 -0.68446,0.818368 -0.68446,2.231914 v 0.863007 q 0,1.413546 0.68446,2.231915 0.69933,0.818368 1.96408,0.818368 z" />
      <path
         id="path907"
         style="font-style:normal;font-variant:normal;font-weight:200;font-stretch:normal;font-size:14.87942982px;line-height:1.25;font-family:'IBM Plex Sans';-inkscape-font-specification:'IBM Plex Sans Ultra-Light';letter-spacing:0px;word-spacing:0px;fill:#00c7be;fill-opacity:1;stroke:none;stroke-width:0.37198576"
         d="m 158.68685,89.977112 q -0.61006,0 -0.63981,-0.624936 v -0.550539 h -0.0595 q -0.26783,0.580298 -0.84813,0.967163 -0.5803,0.386865 -1.56234,0.386865 -1.17547,0 -1.81529,-0.565418 -0.63982,-0.565419 -0.63982,-1.592099 0,-0.491022 0.1488,-0.892766 0.14879,-0.401745 0.49102,-0.684454 0.35711,-0.297589 0.90765,-0.446383 0.56541,-0.163674 1.38378,-0.163674 h 1.97897 V 84.79907 q 0,-1.071319 -0.52078,-1.577219 -0.52078,-0.52078 -1.54746,-0.52078 -1.5921,0 -2.20216,1.339148 l -0.37199,-0.25295 q 0.31247,-0.699333 0.92253,-1.115957 0.61006,-0.431504 1.6665,-0.431504 1.26475,0 1.91944,0.654695 0.6547,0.639816 0.6547,1.84505 v 4.776296 h 1.16059 v 0.461263 z m -3.06516,-0.282709 q 0.49102,0 0.92252,-0.119036 0.44639,-0.133915 0.77373,-0.371986 0.32735,-0.23807 0.52078,-0.595177 0.19344,-0.357106 0.19344,-0.833248 v -1.54746 h -1.97897 q -1.24987,0 -1.81529,0.431503 -0.56542,0.416624 -0.56542,1.115957 v 0.416624 q 0,0.743972 0.53566,1.130837 0.55054,0.371986 1.41355,0.371986 z" />
      <path
         id="path909"
         style="font-style:normal;font-variant:normal;font-weight:200;font-stretch:normal;font-size:14.87942982px;line-height:1.25;font-family:'IBM Plex Sans';-inkscape-font-specification:'IBM Plex Sans Ultra-Light';letter-spacing:0px;word-spacing:0px;fill:#00c7be;fill-opacity:1;stroke:none;stroke-width:0.37198576"
         d="m 169.9803,88.801637 h -0.0446 q -0.25295,0.535659 -0.84812,0.952283 -0.59518,0.401745 -1.54747,0.401745 -1.48794,0 -2.32119,-0.996922 -0.81837,-1.011801 -0.81837,-2.961006 0,-1.949206 0.81837,-2.946127 0.83325,-1.011802 2.32119,-1.011802 0.95229,0 1.54747,0.401745 0.59517,0.401745 0.84812,0.952283 h 0.0446 v -4.627502 h 0.52078 v 11.010778 h -0.52078 z m -2.36583,0.877886 q 0.47614,0 0.90765,-0.133915 0.4315,-0.133915 0.74397,-0.386865 0.32735,-0.25295 0.52078,-0.595177 0.19343,-0.357106 0.19343,-0.78861 v -3.184198 q 0,-0.416624 -0.19343,-0.758851 -0.19343,-0.357106 -0.52078,-0.595177 -0.31247,-0.25295 -0.74397,-0.386865 -0.43151,-0.148794 -0.90765,-0.148794 -1.26475,0 -1.96408,0.833248 -0.68446,0.818368 -0.68446,2.231914 v 0.863007 q 0,1.413546 0.68446,2.231915 0.69933,0.818368 1.96408,0.818368 z" />
      <path
         id="path911"
         style="font-style:normal;font-variant:normal;font-weight:200;font-stretch:normal;font-size:14.87942982px;line-height:1.25;font-family:'IBM Plex Sans';-inkscape-font-specification:'IBM Plex Sans Ultra-Light';letter-spacing:0px;word-spacing:0px;fill:#00c7be;fill-opacity:1;stroke:none;stroke-width:0.37198576"
         d="m 176.08086,90.155665 q -1.50282,0 -2.38071,-1.011801 -0.86301,-1.011801 -0.86301,-2.946127 0,-1.919447 0.84813,-2.931248 0.84813,-1.026681 2.33607,-1.026681 0.69933,0 1.26475,0.26783 0.5803,0.26783 0.98204,0.758851 0.41663,0.491021 0.63982,1.190354 0.22319,0.684454 0.22319,1.532582 v 0.238071 h -5.74346 v 0.401744 q 0,0.699333 0.17856,1.264752 0.17855,0.565418 0.52078,0.967163 0.3571,0.401744 0.84812,0.624936 0.5059,0.208312 1.14572,0.208312 1.80041,0 2.48486,-1.726014 l 0.40175,0.223191 q -0.34223,0.892766 -1.07132,1.428426 -0.72909,0.535659 -1.81529,0.535659 z m -0.0595,-7.454594 q -0.62493,0 -1.11596,0.223191 -0.47614,0.208312 -0.81836,0.610057 -0.34223,0.401744 -0.52078,0.967163 -0.17856,0.565418 -0.17856,1.249872 v 0.05952 h 5.17804 v -0.08928 q 0,-0.684454 -0.19343,-1.234993 -0.17855,-0.565418 -0.52078,-0.952283 -0.32735,-0.401745 -0.80349,-0.610057 -0.46126,-0.223191 -1.02668,-0.22319 z m -0.16367,-1.458184 -0.35711,-0.193433 1.56234,-2.35095 0.47614,0.26783 z" />
      <path
         id="path913"
         style="font-style:normal;font-variant:normal;font-weight:200;font-stretch:normal;font-size:14.87942982px;line-height:1.25;font-family:'IBM Plex Sans';-inkscape-font-specification:'IBM Plex Sans Ultra-Light';letter-spacing:0px;word-spacing:0px;fill:#00c7be;fill-opacity:1;stroke:none;stroke-width:0.37198576"
         d="m 184.02646,90.155665 q -1.51771,0 -2.36583,-1.011801 -0.83325,-1.011801 -0.83325,-2.946127 0,-1.949206 0.83325,-2.946127 0.84812,-1.011802 2.36583,-1.011802 0.95228,0 1.57722,0.431504 0.62493,0.416624 0.96716,1.130836 l -0.4315,0.223192 q -0.32735,-0.639816 -0.83325,-0.982042 -0.49102,-0.342227 -1.27963,-0.342227 -1.27963,0 -1.96409,0.833248 -0.66957,0.833248 -0.66957,2.231914 v 0.863007 q 0,1.398667 0.66957,2.231915 0.68446,0.833248 1.96409,0.833248 0.84812,0 1.38378,-0.342227 0.55054,-0.357107 0.89277,-0.982043 l 0.38686,0.26783 q -0.37198,0.684454 -1.0118,1.101078 -0.63981,0.416624 -1.65161,0.416624 z" />
      <path
         id="path915"
         style="font-style:normal;font-variant:normal;font-weight:200;font-stretch:normal;font-size:14.87942982px;line-height:1.25;font-family:'IBM Plex Sans';-inkscape-font-specification:'IBM Plex Sans Ultra-Light';letter-spacing:0px;word-spacing:0px;fill:#00c7be;fill-opacity:1;stroke:none;stroke-width:0.37198576"
         d="m 189.04081,80.082291 q -0.23807,0 -0.34222,-0.104156 -0.10416,-0.119035 -0.10416,-0.282709 v -0.133915 q 0,-0.163674 0.0893,-0.26783 0.10415,-0.119035 0.34223,-0.119035 0.23807,0 0.34222,0.119035 0.10416,0.104156 0.10416,0.26783 v 0.133915 q 0,0.163674 -0.10416,0.282709 -0.0893,0.104156 -0.32735,0.104156 z m -0.26783,2.33607 h 0.52078 v 7.558751 h -0.52078 z" />
      <path
         id="path917"
         style="font-style:normal;font-variant:normal;font-weight:200;font-stretch:normal;font-size:14.87942982px;line-height:1.25;font-family:'IBM Plex Sans';-inkscape-font-specification:'IBM Plex Sans Ultra-Light';letter-spacing:0px;word-spacing:0px;fill:#00c7be;fill-opacity:1;stroke:none;stroke-width:0.37198576"
         d="m 192.26963,89.977112 v -7.558751 h 0.52078 v 1.160596 h 0.0446 q 0.10415,-0.26783 0.28271,-0.505901 0.19343,-0.23807 0.46126,-0.416624 0.26783,-0.193432 0.62493,-0.297588 0.37199,-0.119036 0.86301,-0.119036 0.89277,0 1.50282,0.416624 0.61006,0.401745 0.86301,1.220114 h 0.0446 q 0.20831,-0.714213 0.80349,-1.175475 0.61005,-0.461263 1.63673,-0.461263 1.24988,0 1.90457,0.743972 0.6547,0.729092 0.6547,2.142638 v 4.850694 h -0.52078 v -4.776297 q 0,-1.279631 -0.53566,-1.889688 -0.53566,-0.610056 -1.60698,-0.610056 -0.4315,0 -0.83325,0.119035 -0.38686,0.119036 -0.68445,0.357106 -0.29759,0.238071 -0.47614,0.610057 -0.17856,0.357106 -0.17856,0.833248 v 5.356595 h -0.52078 v -4.776297 q 0,-1.294511 -0.55054,-1.889688 -0.55054,-0.610056 -1.5921,-0.610056 -0.4315,0 -0.83324,0.119035 -0.38687,0.119036 -0.69934,0.357106 -0.29759,0.238071 -0.47614,0.595178 -0.17855,0.357106 -0.17855,0.833248 v 5.371474 z" />
      <path
         id="path919"
         style="font-style:normal;font-variant:normal;font-weight:200;font-stretch:normal;font-size:14.87942982px;line-height:1.25;font-family:'IBM Plex Sans';-inkscape-font-specification:'IBM Plex Sans Ultra-Light';letter-spacing:0px;word-spacing:0px;fill:#00c7be;fill-opacity:1;stroke:none;stroke-width:0.37198576"
         d="m 210.25884,89.977112 q -0.61006,0 -0.63982,-0.624936 v -0.550539 h -0.0595 q -0.26783,0.580298 -0.84812,0.967163 -0.5803,0.386865 -1.56234,0.386865 -1.17548,0 -1.81529,-0.565418 -0.63982,-0.565419 -0.63982,-1.592099 0,-0.491022 0.14879,-0.892766 0.1488,-0.401745 0.49103,-0.684454 0.3571,-0.297589 0.90764,-0.446383 0.56542,-0.163674 1.38379,-0.163674 h 1.97896 V 84.79907 q 0,-1.071319 -0.52078,-1.577219 -0.52078,-0.52078 -1.54746,-0.52078 -1.5921,0 -2.20215,1.339148 l -0.37199,-0.25295 q 0.31247,-0.699333 0.92252,-1.115957 0.61006,-0.431504 1.6665,-0.431504 1.26475,0 1.91945,0.654695 0.65469,0.639816 0.65469,1.84505 v 4.776296 h 1.1606 v 0.461263 z m -3.06517,-0.282709 q 0.49103,0 0.92253,-0.119036 0.44638,-0.133915 0.77373,-0.371986 0.32735,-0.23807 0.52078,-0.595177 0.19343,-0.357106 0.19343,-0.833248 v -1.54746 h -1.97896 q -1.24987,0 -1.81529,0.431503 -0.56542,0.416624 -0.56542,1.115957 v 0.416624 q 0,0.743972 0.53566,1.130837 0.55054,0.371986 1.41354,0.371986 z" />
      <path
         id="path921"
         style="font-style:normal;font-variant:normal;font-weight:200;font-stretch:normal;font-size:14.87942982px;line-height:1.25;font-family:'IBM Plex Sans';-inkscape-font-specification:'IBM Plex Sans Ultra-Light';letter-spacing:0px;word-spacing:0px;fill:#00c7be;fill-opacity:1;stroke:none;stroke-width:0.37198576"
         d="m 220.22802,90.155665 q -1.94921,0 -3.0354,-1.339149 -1.07132,-1.354028 -1.07132,-4.032325 0,-2.678298 1.07132,-4.017446 1.08619,-1.354028 3.0354,-1.354028 1.9492,0 3.02052,1.354028 1.0862,1.339148 1.0862,4.017446 0,2.678297 -1.0862,4.032325 -1.07132,1.339149 -3.02052,1.339149 z m 0,-0.491021 q 1.62186,0 2.55926,-1.130837 0.95228,-1.130837 0.95228,-3.303233 v -0.892766 q 0,-2.172397 -0.95228,-3.303234 -0.9374,-1.130836 -2.55926,-1.130836 -1.62186,0 -2.57414,1.130836 -0.93741,1.130837 -0.93741,3.303234 v 0.892766 q 0,2.172396 0.93741,3.303233 0.95228,1.130837 2.57414,1.130837 z" />
      <path
         id="path923"
         style="font-style:normal;font-variant:normal;font-weight:200;font-stretch:normal;font-size:14.87942982px;line-height:1.25;font-family:'IBM Plex Sans';-inkscape-font-specification:'IBM Plex Sans Ultra-Light';letter-spacing:0px;word-spacing:0px;fill:#00c7be;fill-opacity:1;stroke:none;stroke-width:0.37198576"
         d="m 227.13205,82.879624 h -1.35402 v -0.461263 h 1.35402 v -2.693176 q 0,-0.758851 0.7291,-0.758851 h 1.48794 v 0.461262 h -1.69626 v 2.990765 h 1.69626 v 0.461263 h -1.69626 v 7.097488 h -0.52078 z" />
      <path
         id="path925"
         style="font-style:normal;font-variant:normal;font-weight:200;font-stretch:normal;font-size:14.87942982px;line-height:1.25;font-family:'IBM Plex Sans';-inkscape-font-specification:'IBM Plex Sans Ultra-Light';letter-spacing:0px;word-spacing:0px;fill:#00c7be;fill-opacity:1;stroke:none;stroke-width:0.37198576"
         d="m 233.72361,90.155665 q -1.50282,0 -2.38071,-1.011801 -0.86301,-1.011801 -0.86301,-2.946127 0,-1.919447 0.84813,-2.931248 0.84813,-1.026681 2.33607,-1.026681 0.69934,0 1.26475,0.26783 0.5803,0.26783 0.98205,0.758851 0.41662,0.491021 0.63981,1.190354 0.22319,0.684454 0.22319,1.532582 v 0.238071 h -5.74346 v 0.401744 q 0,0.699333 0.17856,1.264752 0.17855,0.565418 0.52078,0.967163 0.3571,0.401744 0.84812,0.624936 0.5059,0.208312 1.14572,0.208312 1.80041,0 2.48487,-1.726014 l 0.40174,0.223191 q -0.34223,0.892766 -1.07132,1.428426 -0.72909,0.535659 -1.81529,0.535659 z m -0.0595,-7.454594 q -0.62493,0 -1.11595,0.223191 -0.47615,0.208312 -0.81837,0.610057 -0.34223,0.401744 -0.52078,0.967163 -0.17856,0.565418 -0.17856,1.249872 v 0.05952 h 5.17805 v -0.08928 q 0,-0.684454 -0.19344,-1.234993 -0.17855,-0.565418 -0.52078,-0.952283 -0.32734,-0.401745 -0.80349,-0.610057 -0.46126,-0.223191 -1.02668,-0.22319 z" />
      <path
         id="path927"
         style="font-style:normal;font-variant:normal;font-weight:200;font-stretch:normal;font-size:14.87942982px;line-height:1.25;font-family:'IBM Plex Sans';-inkscape-font-specification:'IBM Plex Sans Ultra-Light';letter-spacing:0px;word-spacing:0px;fill:#00c7be;fill-opacity:1;stroke:none;stroke-width:0.37198576"
         d="m 245.55272,89.977112 h -0.6547 l -3.16932,-4.835815 h -0.0298 l -3.19907,4.835815 h -0.63982 l 3.51155,-5.267318 -3.39251,-5.118524 h 0.65469 l 3.06516,4.642382 h 0.0298 l 3.06516,-4.642382 h 0.63982 l -3.37763,5.073885 z" />
      <path
         id="path937"
         style="font-style:normal;font-variant:normal;font-weight:300;font-stretch:normal;font-size:17.9378624px;line-height:1.25;font-family:'IBM Plex Sans';-inkscape-font-specification:'IBM Plex Sans Light';letter-spacing:0px;word-spacing:0px;fill:#9db3cc;fill-opacity:1;stroke:none;stroke-width:0.44844654"
         d="m 151.07091,105.26356 h -3.19294 l -0.68164,3.87458 h -0.55607 l 0.6637,-3.87458 h -2.58306 v -0.5202 h 2.69068 l 0.62783,-3.73107 h -2.61893 v -0.5202 h 2.70862 l 0.6637,-3.87458 h 0.55607 l -0.6637,3.87458 h 3.19294 l 0.6637,-3.87458 h 0.57401 l -0.68164,3.87458 h 2.60099 v 0.5202 h -2.69067 l -0.62783,3.73107 h 2.61893 v 0.5202 h -2.70862 l -0.6637,3.87458 h -0.57401 z m 0.0897,-0.5202 0.62782,-3.73107 h -3.19294 l -0.64576,3.73107 z" />
      <path
         id="path939"
         style="font-style:normal;font-variant:normal;font-weight:300;font-stretch:normal;font-size:17.9378624px;line-height:1.25;font-family:'IBM Plex Sans';-inkscape-font-specification:'IBM Plex Sans Light';letter-spacing:0px;word-spacing:0px;fill:#9db3cc;fill-opacity:1;stroke:none;stroke-width:0.44844654"
         d="m 158.37159,97.209459 q -0.28701,0 -0.41257,-0.125565 -0.12557,-0.143503 -0.12557,-0.340819 v -0.161441 q 0,-0.197316 0.10763,-0.322881 0.12557,-0.143503 0.41257,-0.143503 0.28701,0 0.41257,0.143503 0.12557,0.125565 0.12557,0.322881 v 0.161441 q 0,0.197316 -0.12557,0.340819 -0.10762,0.125565 -0.39463,0.125565 z m -0.32288,2.816241 h 0.62782 v 9.11244 h -0.62782 z" />
      <path
         id="path941"
         style="font-style:normal;font-variant:normal;font-weight:300;font-stretch:normal;font-size:17.9378624px;line-height:1.25;font-family:'IBM Plex Sans';-inkscape-font-specification:'IBM Plex Sans Light';letter-spacing:0px;word-spacing:0px;fill:#9db3cc;fill-opacity:1;stroke:none;stroke-width:0.44844654"
         d="m 162.26408,109.13814 v -9.11244 h 0.62783 v 1.39916 h 0.0538 q 0.12557,-0.32288 0.34082,-0.60989 0.23319,-0.28701 0.55607,-0.50226 0.32289,-0.23319 0.7534,-0.358758 0.44844,-0.143503 1.04039,-0.143503 1.07627,0 1.81173,0.502261 0.73545,0.48432 1.04039,1.4709 h 0.0538 q 0.25114,-0.86101 0.96865,-1.41709 0.73545,-0.556071 1.97316,-0.556071 1.50678,0 2.29605,0.896891 0.78927,0.87896 0.78927,2.58305 v 5.84775 h -0.62783 v -5.75806 q 0,-1.54265 -0.64576,-2.2781 -0.64576,-0.73546 -1.93729,-0.73546 -0.5202,0 -1.00452,0.14351 -0.46639,0.1435 -0.82514,0.4305 -0.35876,0.28701 -0.57401,0.73546 -0.21526,0.43051 -0.21526,1.00452 v 6.45763 h -0.62782 v -5.75806 q 0,-1.56059 -0.6637,-2.2781 -0.66371,-0.73546 -1.91936,-0.73546 -0.52019,0 -1.00452,0.14351 -0.46638,0.1435 -0.84308,0.4305 -0.35875,0.28701 -0.57401,0.71752 -0.21525,0.43051 -0.21525,1.00452 v 6.47557 z" />
      <path
         id="path943"
         style="font-style:normal;font-variant:normal;font-weight:300;font-stretch:normal;font-size:17.9378624px;line-height:1.25;font-family:'IBM Plex Sans';-inkscape-font-specification:'IBM Plex Sans Light';letter-spacing:0px;word-spacing:0px;fill:#9db3cc;fill-opacity:1;stroke:none;stroke-width:0.44844654"
         d="m 178.0135,100.0257 h 0.62782 v 1.41709 h 0.0538 q 0.30494,-0.6637 1.02245,-1.14802 0.71752,-0.484321 1.86554,-0.484321 1.79379,0 2.78037,1.219771 1.00452,1.20184 1.00452,3.5517 0,2.34986 -1.00452,3.56964 -0.98658,1.20183 -2.78037,1.20183 -1.14802,0 -1.86554,-0.48432 -0.71751,-0.50226 -1.02245,-1.14802 h -0.0538 v 5.00466 h -0.62782 z m 3.47994,8.75368 q 1.52472,0 2.34986,-0.98658 0.84308,-0.98658 0.84308,-2.69068 v -1.0404 q 0,-1.70409 -0.84308,-2.69068 -0.82514,-1.00452 -2.34986,-1.00452 -0.57401,0 -1.09421,0.17938 -0.52019,0.16144 -0.91483,0.46639 -0.37669,0.287 -0.60989,0.71751 -0.23319,0.41257 -0.23319,0.91483 v 3.8387 q 0,0.5202 0.23319,0.95071 0.2332,0.41257 0.60989,0.71752 0.39464,0.30494 0.91483,0.46638 0.5202,0.16144 1.09421,0.16144 z" />
      <path
         id="path945"
         style="font-style:normal;font-variant:normal;font-weight:300;font-stretch:normal;font-size:17.9378624px;line-height:1.25;font-family:'IBM Plex Sans';-inkscape-font-specification:'IBM Plex Sans Light';letter-spacing:0px;word-spacing:0px;fill:#9db3cc;fill-opacity:1;stroke:none;stroke-width:0.44844654"
         d="m 194.12169,109.13814 q -0.73546,0 -0.77133,-0.75339 v -0.6637 h -0.0718 q -0.32288,0.69957 -1.02246,1.16596 -0.69958,0.46638 -1.88348,0.46638 -1.41709,0 -2.18842,-0.68164 -0.77132,-0.68164 -0.77132,-1.91935 0,-0.59195 0.17938,-1.07627 0.17937,-0.48432 0.59194,-0.82514 0.43051,-0.35876 1.09421,-0.53814 0.68164,-0.19731 1.66823,-0.19731 h 2.38573 v -1.21978 q 0,-1.29152 -0.62782,-1.90141 -0.62783,-0.62783 -1.86554,-0.62783 -1.91935,0 -2.65481,1.61441 l -0.44844,-0.30494 q 0.37669,-0.84308 1.11215,-1.34534 0.73545,-0.520201 2.00904,-0.520201 1.52471,0 2.31398,0.789271 0.78927,0.77132 0.78927,2.22429 v 5.75805 h 1.39915 v 0.55608 z m -3.6952,-0.34082 q 0.59195,0 1.11215,-0.1435 0.53813,-0.16145 0.93276,-0.44845 0.39464,-0.28701 0.62783,-0.71752 0.23319,-0.4305 0.23319,-1.00452 v -1.86553 h -2.38573 q -1.50678,0 -2.18842,0.52019 -0.68164,0.50226 -0.68164,1.34534 v 0.50226 q 0,0.8969 0.64576,1.36328 0.6637,0.44845 1.7041,0.44845 z" />
      <path
         id="path947"
         style="font-style:normal;font-variant:normal;font-weight:300;font-stretch:normal;font-size:17.9378624px;line-height:1.25;font-family:'IBM Plex Sans';-inkscape-font-specification:'IBM Plex Sans Light';letter-spacing:0px;word-spacing:0px;fill:#9db3cc;fill-opacity:1;stroke:none;stroke-width:0.44844654"
         d="m 200.63312,109.35339 q -1.82966,0 -2.85212,-1.21977 -1.00452,-1.21978 -1.00452,-3.5517 0,-2.34986 1.00452,-3.5517 1.02246,-1.219771 2.85212,-1.219771 1.14802,0 1.90141,0.520201 0.75339,0.50226 1.16596,1.36327 l -0.52019,0.26907 q -0.39464,-0.77133 -1.00452,-1.1839 -0.59195,-0.41257 -1.54266,-0.41257 -1.54266,0 -2.3678,1.00452 -0.8072,1.00452 -0.8072,2.69068 v 1.0404 q 0,1.68616 0.8072,2.69068 0.82514,1.00452 2.3678,1.00452 1.02246,0 1.66822,-0.41257 0.6637,-0.43051 1.07627,-1.1839 l 0.46639,0.32288 q -0.44845,0.82514 -1.21978,1.3274 -0.77133,0.50226 -1.9911,0.50226 z" />
      <path
         id="path949"
         style="font-style:normal;font-variant:normal;font-weight:300;font-stretch:normal;font-size:17.9378624px;line-height:1.25;font-family:'IBM Plex Sans';-inkscape-font-specification:'IBM Plex Sans Light';letter-spacing:0px;word-spacing:0px;fill:#9db3cc;fill-opacity:1;stroke:none;stroke-width:0.44844654"
         d="m 207.52124,109.13814 q -0.77132,0 -0.77132,-0.75339 v -7.80297 h -1.65029 v -0.55608 h 1.1839 q 0.30495,0 0.39463,-0.125561 0.10763,-0.125565 0.10763,-0.430509 v -2.026978 h 0.59195 v 2.583048 h 2.13461 v 0.55608 h -2.13461 v 8.00028 h 1.9911 v 0.55608 z" />
      <path
         id="path951"
         style="font-style:normal;font-variant:normal;font-weight:300;font-stretch:normal;font-size:17.9378624px;line-height:1.25;font-family:'IBM Plex Sans';-inkscape-font-specification:'IBM Plex Sans Light';letter-spacing:0px;word-spacing:0px;fill:#9db3cc;fill-opacity:1;stroke:none;stroke-width:0.44844654"
         d="m 215.14481,109.35339 q -1.81172,0 -2.87006,-1.21977 -1.04039,-1.21978 -1.04039,-3.5517 0,-2.31398 1.02246,-3.53376 1.02245,-1.237711 2.81624,-1.237711 0.84308,0 1.52472,0.322881 0.69957,0.32288 1.1839,0.91483 0.50226,0.59195 0.77132,1.43503 0.26907,0.82514 0.26907,1.8476 v 0.28701 h -6.92401 v 0.48432 q 0,0.84308 0.21525,1.52472 0.21526,0.68164 0.62783,1.16596 0.43051,0.48432 1.02246,0.75339 0.60988,0.25113 1.38121,0.25113 2.17048,0 2.99562,-2.08079 l 0.48433,0.26906 q -0.41257,1.07628 -1.29153,1.72204 -0.87896,0.64576 -2.18842,0.64576 z m -0.0718,-8.98687 q -0.75339,0 -1.34534,0.26907 -0.57401,0.25113 -0.98658,0.73545 -0.41257,0.48433 -0.62783,1.16596 -0.21525,0.68164 -0.21525,1.50678 v 0.0718 h 6.24237 v -0.10763 q 0,-0.82514 -0.23319,-1.48884 -0.21525,-0.68164 -0.62782,-1.14803 -0.39464,-0.48432 -0.96865,-0.73545 -0.55607,-0.26907 -1.23771,-0.26907 z" />
    </g>
  </g>
</svg>
